# xmcd
#
# Track frame offsets:
#	150
#	20750
#	41937
#	64175
#	87975
#	111012
#	134700
#	154962
#	174675
#	196225
#
# Disc length: 2949 seconds
#
# Revision: 1
# Processed by: cddbd v1.5.2PL0 Copyright (c) Steve Scherf et al.
# Submitted via: EZCDAudioConverter 5.5.0.1
#
DISCID=930b830a
DTITLE=姜育恆V.S李子恆 - 唱作俱佳輯 兩個永恆
DYEAR=1997
DGENRE=Pop
TTITLE0=情難枕
TTITLE1=我可以
TTITLE2=夕陽
TTITLE3=牽手
TTITLE4=誤點夢
TTITLE5=浪花
TTITLE6=飄
TTITLE7=負心
TTITLE8=煙火
TTITLE9=情深往事
EXTD=
EXTT0=
EXTT1=
EXTT2=
EXTT3=
EXTT4=
EXTT5=
EXTT6=
EXTT7=
EXTT8=
EXTT9=
PLAYORDER=
